  0
SECTION
  2
HEADER
  9
$ACADVER
  1
AC1009
  9
$FILLMODE
 70
0
  9
$EXTMIN
 10
-28.7867
 20
-2.0508
 30
0.0000
  9
$EXTMAX
 10
69.1261
 20
48.0381
 30
0.0000
  0
ENDSEC
  0
SECTION
  2
TABLES
  0
TABLE
  2
LTYPE
 70
1
  0
LTYPE
  2
CONTINUOUS
 70
64
  3
Solid line
 72
65
 73
0
 40
0
  0
ENDTAB
  0
TABLE
  2
LAYER
 70
255
  0
LAYER
  2
100
 70
64
 62
253
  6
CONTINUOUS
  0
ENDTAB
  0
ENDSEC
  0
SECTION
  2
BLOCKS
  0
BLOCK
  8
0
  2
RECT
 70
64
 10
0.0000
 20
0.0000
 30
0.0000
  3
RECT
  0
SOLID
  8
0
 10
-0.5000
 20
-0.5000
 30
0.0000
 11
0.5000
 21
-0.5000
 31
0.0000
 12
-0.5000
 22
0.5000
 32
0.0000
 13
0.5000
 23
0.5000
 33
0.0000
  0
ENDBLK
  8
0
  0
BLOCK
  8
0
  2
PIE
 70
64
 10
0.0000
 20
0.0000
 30
0.0000
  3
PIE
  0
CIRCLE
  8
0
 10
0.0000
 20
0.0000
 30
0.0000
 40
0.5000
  0
ENDBLK
  8
0
  0
BLOCK
  8
0
  2
OCTAGONP
 70
64
 10
0.0000
 20
0.0000
 30
0.0000
  3
OCTAGONP
  0
POLYLINE
  8
0
 66
1
 10
0.0000
 20
0.0000
 30
0.0000
 40
0.0000
 41
0.0000
 70
1
  0
VERTEX
  8
0
 10
-0.5000
 20
-0.2071
 30
0.0000
  0
VERTEX
  8
0
 10
-0.5000
 20
0.2071
 30
0.0000
  0
VERTEX
  8
0
 10
-0.2071
 20
0.5000
 30
0.0000
  0
VERTEX
  8
0
 10
0.2071
 20
0.5000
 30
0.0000
  0
VERTEX
  8
0
 10
0.5000
 20
0.2071
 30
0.0000
  0
VERTEX
  8
0
 10
0.5000
 20
-0.2071
 30
0.0000
  0
VERTEX
  8
0
 10
0.2071
 20
-0.5000
 30
0.0000
  0
VERTEX
  8
0
 10
-0.2071
 20
-0.5000
 30
0.0000
  0
SEQEND
  8
0
  0
ENDBLK
  8
0
  0
BLOCK
  8
0
  2
SQUAREP
 70
64
 10
0.0000
 20
0.0000
 30
0.0000
  3
SQUAREP
  0
SOLID
  8
0
 10
-0.5000
 20
-0.5000
 30
0.0000
 11
0.5000
 21
-0.5000
 31
0.0000
 12
-0.5000
 22
0.5000
 32
0.0000
 13
0.5000
 23
0.5000
 33
0.0000
  0
ENDBLK
  8
0
  0
BLOCK
  8
0
  2
ROUNDP
 70
64
 10
0.0000
 20
0.0000
 30
0.0000
  3
ROUNDP
  0
CIRCLE
  8
0
 10
0.0000
 20
0.0000
 30
0.0000
 40
0.5000
  0
ENDBLK
  8
0
  0
BLOCK
  8
0
  2
ANNULUSP
 70
64
 10
0.0000
 20
0.0000
 30
0.0000
  3
ANNULUSP
  0
CIRCLE
  8
0
 10
0.0000
 20
0.0000
 30
0.0000
 40
0.5000
  0
ENDBLK
  8
0
  0
BLOCK
  8
0
  2
THERMALP
 70
64
 10
0.0000
 20
0.0000
 30
0.0000
  3
THERMALP
  0
LINE
  8
0
 10
-0.2379
 20
0.4500
 30
0.0000
 11
0.2379
 21
0.4500
 31
0.0000
  0
LINE
  8
0
 10
0.4500
 20
0.2379
 30
0.0000
 11
0.4500
 21
-0.2379
 31
0.0000
  0
LINE
  8
0
 10
0.2379
 20
-0.4500
 30
0.0000
 11
-0.2379
 21
-0.4500
 31
0.0000
  0
LINE
  8
0
 10
-0.4500
 20
-0.2379
 30
0.0000
 11
-0.4500
 21
0.2379
 31
0.0000
  0
ENDBLK
  8
0
  0
BLOCK
  8
0
  2
OCTAGONV
 70
64
 10
0.0000
 20
0.0000
 30
0.0000
  3
OCTAGONV
  0
POLYLINE
  8
0
 66
1
 10
0.0000
 20
0.0000
 30
0.0000
 40
0.0000
 41
0.0000
 70
1
  0
VERTEX
  8
0
 10
-0.5000
 20
-0.2071
 30
0.0000
  0
VERTEX
  8
0
 10
-0.5000
 20
0.2071
 30
0.0000
  0
VERTEX
  8
0
 10
-0.2071
 20
0.5000
 30
0.0000
  0
VERTEX
  8
0
 10
0.2071
 20
0.5000
 30
0.0000
  0
VERTEX
  8
0
 10
0.5000
 20
0.2071
 30
0.0000
  0
VERTEX
  8
0
 10
0.5000
 20
-0.2071
 30
0.0000
  0
VERTEX
  8
0
 10
0.2071
 20
-0.5000
 30
0.0000
  0
VERTEX
  8
0
 10
-0.2071
 20
-0.5000
 30
0.0000
  0
SEQEND
  8
0
  0
ENDBLK
  8
0
  0
BLOCK
  8
0
  2
SQUAREV
 70
64
 10
0.0000
 20
0.0000
 30
0.0000
  3
SQUAREV
  0
SOLID
  8
0
 10
-0.5000
 20
-0.5000
 30
0.0000
 11
0.5000
 21
-0.5000
 31
0.0000
 12
-0.5000
 22
0.5000
 32
0.0000
 13
0.5000
 23
0.5000
 33
0.0000
  0
ENDBLK
  8
0
  0
BLOCK
  8
0
  2
ROUNDV
 70
64
 10
0.0000
 20
0.0000
 30
0.0000
  3
ROUNDV
  0
CIRCLE
  8
0
 10
0.0000
 20
0.0000
 30
0.0000
 40
0.5000
  0
ENDBLK
  8
0
  0
BLOCK
  8
0
  2
ANNULUSV
 70
64
 10
0.0000
 20
0.0000
 30
0.0000
  3
ANNULUSV
  0
CIRCLE
  8
0
 10
0.0000
 20
0.0000
 30
0.0000
 40
0.5000
  0
ENDBLK
  8
0
  0
BLOCK
  8
0
  2
THERMALV
 70
64
 10
0.0000
 20
0.0000
 30
0.0000
  3
THERMALV
  0
LINE
  8
0
 10
-0.2379
 20
0.4500
 30
0.0000
 11
0.2379
 21
0.4500
 31
0.0000
  0
LINE
  8
0
 10
0.4500
 20
0.2379
 30
0.0000
 11
0.4500
 21
-0.2379
 31
0.0000
  0
LINE
  8
0
 10
0.2379
 20
-0.4500
 30
0.0000
 11
-0.2379
 21
-0.4500
 31
0.0000
  0
LINE
  8
0
 10
-0.4500
 20
-0.2379
 30
0.0000
 11
-0.4500
 21
0.2379
 31
0.0000
  0
ENDBLK
  8
0
  0
BLOCK
  8
0
  2
LONGP100
 70
64
 10
0.0000
 20
0.0000
 30
0.0000
  3
LONGP100
  0
POLYLINE
  8
0
 66
1
 10
0.0000
 20
0.0000
 30
0.0000
 40
0.0000
 41
0.0000
 70
1
  0
VERTEX
  8
0
 10
-0.5000
 20
-0.5000
 30
0.0000
  0
VERTEX
  8
0
 10
0.5000
 20
-0.5000
 30
0.0000
 42
1.0000
  0
VERTEX
  8
0
 10
0.5000
 20
0.5000
 30
0.0000
  0
VERTEX
  8
0
 10
-0.5000
 20
0.5000
 30
0.0000
 42
1.0000
  0
SEQEND
  8
0
  0
ENDBLK
  8
0
  0
ENDSEC
  0
SECTION
  2
ENTITIES
  0
LINE
  8
100
 10
0.0000
 20
0.0000
 30
0.0000
 11
0.0000
 21
41.0000
 31
0.0000
  0
LINE
  8
100
 10
0.0000
 20
41.0000
 30
0.0000
 11
5.5000
 21
41.0000
 31
0.0000
  0
LINE
  8
100
 10
5.5000
 20
41.0000
 30
0.0000
 11
5.5000
 21
48.0000
 31
0.0000
  0
LINE
  8
100
 10
5.5000
 20
48.0000
 30
0.0000
 11
32.0000
 21
48.0000
 31
0.0000
  0
LINE
  8
100
 10
32.0000
 20
48.0000
 30
0.0000
 11
32.0000
 21
41.0000
 31
0.0000
  0
LINE
  8
100
 10
32.0000
 20
41.0000
 30
0.0000
 11
38.0000
 21
41.0000
 31
0.0000
  0
LINE
  8
100
 10
38.0000
 20
41.0000
 30
0.0000
 11
38.0000
 21
0.0000
 31
0.0000
  0
LINE
  8
100
 10
38.0000
 20
0.0000
 30
0.0000
 11
0.0000
 21
0.0000
 31
0.0000
  0
LINE
  8
100
 10
4.9530
 20
22.4790
 30
0.0000
 11
4.9530
 21
12.9540
 31
0.0000
  0
LINE
  8
100
 10
-6.2230
 20
21.4630
 30
0.0000
 11
-6.2230
 21
13.7160
 31
0.0000
  0
LINE
  8
100
 10
-6.2230
 20
13.7160
 30
0.0000
 11
-14.4780
 21
13.7160
 31
0.0000
  0
LINE
  8
100
 10
-6.2230
 20
21.4630
 30
0.0000
 11
-14.3510
 21
21.4630
 31
0.0000
  0
LINE
  8
100
 10
-16.3830
 20
20.7010
 30
0.0000
 11
-10.0330
 21
20.7010
 31
0.0000
  0
LINE
  8
100
 10
-10.0330
 20
20.7010
 30
0.0000
 11
-10.0330
 21
14.3510
 31
0.0000
  0
LINE
  8
100
 10
-10.0330
 20
14.3510
 30
0.0000
 11
-16.3830
 21
14.3510
 31
0.0000
  0
LINE
  8
100
 10
-16.3830
 20
14.3510
 30
0.0000
 11
-16.3830
 21
20.7010
 31
0.0000
  0
LINE
  8
100
 10
2.7940
 20
20.0660
 30
0.0000
 11
-7.4930
 21
20.0660
 31
0.0000
  0
LINE
  8
100
 10
2.9210
 20
17.3990
 30
0.0000
 11
-7.4930
 21
17.3990
 31
0.0000
  0
LINE
  8
100
 10
2.9210
 20
14.8590
 30
0.0000
 11
-7.6200
 21
14.8590
 31
0.0000
  0
LINE
  8
100
 10
-12.0650
 20
11.6840
 30
0.0000
 11
-12.0650
 21
7.3660
 31
0.0000
  0
LINE
  8
100
 10
-12.0650
 20
7.3660
 30
0.0000
 11
-7.7470
 21
7.3660
 31
0.0000
  0
LINE
  8
100
 10
-7.7470
 20
7.3660
 30
0.0000
 11
-7.7470
 21
8.3820
 31
0.0000
  0
LINE
  8
100
 10
-7.7470
 20
8.3820
 30
0.0000
 11
-7.7470
 21
10.9220
 31
0.0000
  0
LINE
  8
100
 10
-7.7470
 20
10.9220
 30
0.0000
 11
-7.7470
 21
11.6840
 31
0.0000
  0
LINE
  8
100
 10
-7.7470
 20
11.6840
 30
0.0000
 11
-12.0650
 21
11.6840
 31
0.0000
  0
LINE
  8
100
 10
2.9210
 20
10.9220
 30
0.0000
 11
-7.7470
 21
10.9220
 31
0.0000
  0
LINE
  8
100
 10
2.9210
 20
8.3820
 30
0.0000
 11
-7.7470
 21
8.3820
 31
0.0000
  0
LINE
  8
100
 10
-12.1920
 20
40.0050
 30
0.0000
 11
-12.1920
 21
35.6870
 31
0.0000
  0
LINE
  8
100
 10
-12.1920
 20
35.6870
 30
0.0000
 11
-7.8740
 21
35.6870
 31
0.0000
  0
LINE
  8
100
 10
-7.8740
 20
35.6870
 30
0.0000
 11
-7.8740
 21
36.7030
 31
0.0000
  0
LINE
  8
100
 10
-7.8740
 20
36.7030
 30
0.0000
 11
-7.8740
 21
39.2430
 31
0.0000
  0
LINE
  8
100
 10
-7.8740
 20
39.2430
 30
0.0000
 11
-7.8740
 21
40.0050
 31
0.0000
  0
LINE
  8
100
 10
-7.8740
 20
40.0050
 30
0.0000
 11
-12.1920
 21
40.0050
 31
0.0000
  0
LINE
  8
100
 10
2.7940
 20
39.2430
 30
0.0000
 11
-7.8740
 21
39.2430
 31
0.0000
  0
LINE
  8
100
 10
2.7940
 20
36.7030
 30
0.0000
 11
-7.8740
 21
36.7030
 31
0.0000
  0
LINE
  8
100
 10
48.3870
 20
42.1640
 30
0.0000
 11
48.3870
 21
29.3370
 31
0.0000
  0
LINE
  8
100
 10
48.3870
 20
29.3370
 30
0.0000
 11
69.0880
 21
29.3370
 31
0.0000
  0
LINE
  8
100
 10
69.0880
 20
29.3370
 30
0.0000
 11
69.0880
 21
42.1640
 31
0.0000
  0
LINE
  8
100
 10
51.8160
 20
41.4020
 30
0.0000
 11
68.1990
 21
41.4020
 31
0.0000
  0
LINE
  8
100
 10
68.1990
 20
41.4020
 30
0.0000
 11
68.1990
 21
30.0990
 31
0.0000
  0
LINE
  8
100
 10
68.1990
 20
30.0990
 30
0.0000
 11
51.8160
 21
30.0990
 31
0.0000
  0
LINE
  8
100
 10
51.8160
 20
30.0990
 30
0.0000
 11
51.8160
 21
41.4020
 31
0.0000
  0
LINE
  8
100
 10
48.3870
 20
42.1640
 30
0.0000
 11
69.0880
 21
42.1640
 31
0.0000
  0
LINE
  8
100
 10
34.7980
 20
39.6240
 30
0.0000
 11
50.0380
 21
39.6240
 31
0.0000
  0
LINE
  8
100
 10
34.7980
 20
37.0840
 30
0.0000
 11
50.0380
 21
37.0840
 31
0.0000
  0
LINE
  8
100
 10
34.7980
 20
34.5440
 30
0.0000
 11
50.0380
 21
34.5440
 31
0.0000
  0
LINE
  8
100
 10
34.7980
 20
32.0040
 30
0.0000
 11
50.0380
 21
32.0040
 31
0.0000
  0
LINE
  8
100
 10
44.3230
 20
27.0510
 30
0.0000
 11
44.3230
 21
19.3040
 31
0.0000
  0
LINE
  8
100
 10
44.3230
 20
19.3040
 30
0.0000
 11
52.5780
 21
19.3040
 31
0.0000
  0
LINE
  8
100
 10
44.3230
 20
27.0510
 30
0.0000
 11
52.4510
 21
27.0510
 31
0.0000
  0
LINE
  8
100
 10
54.4830
 20
26.2890
 30
0.0000
 11
48.1330
 21
26.2890
 31
0.0000
  0
LINE
  8
100
 10
48.1330
 20
26.2890
 30
0.0000
 11
48.1330
 21
19.9390
 31
0.0000
  0
LINE
  8
100
 10
48.1330
 20
19.9390
 30
0.0000
 11
54.4830
 21
19.9390
 31
0.0000
  0
LINE
  8
100
 10
54.4830
 20
19.9390
 30
0.0000
 11
54.4830
 21
26.2890
 31
0.0000
  0
LINE
  8
100
 10
35.3060
 20
25.6540
 30
0.0000
 11
45.5930
 21
25.6540
 31
0.0000
  0
LINE
  8
100
 10
35.1790
 20
22.9870
 30
0.0000
 11
45.5930
 21
22.9870
 31
0.0000
  0
LINE
  8
100
 10
35.1790
 20
20.4470
 30
0.0000
 11
45.7200
 21
20.4470
 31
0.0000
  0
TEXT
  7
ISOCP
  8
100
 10
-1.1430
 20
24.7650
 30
0.0000
 40
1.7780
  1
LED2
 72
2
 73
3
 11
-1.1430
 21
24.7650
 31
0.0000
  0
TEXT
  7
ISOCP
  8
100
 10
-4.1910
 20
20.3200
 30
0.0000
 40
1.0000
  1
GND
  0
TEXT
  7
ISOCP
  8
100
 10
-4.1910
 20
17.6530
 30
0.0000
 40
1.0000
  1
DATA
  0
TEXT
  7
ISOCP
  8
100
 10
-4.1910
 20
15.1130
 30
0.0000
 40
1.0000
  1
+5V
  0
TEXT
  7
ISOCP
  8
100
 10
-28.1940
 20
16.8910
 30
0.0000
 40
1.7780
  1
WS2812b
  0
TEXT
  7
ISOCP
  8
100
 10
-15.7480
 20
5.9690
 30
0.0000
 40
1.0000
  1
Murata Transducer
  0
TEXT
  7
ISOCP
  8
100
 10
-15.8750
 20
34.2900
 30
0.0000
 40
1.0000
  1
Murata Transducer
  0
TEXT
  7
ISOCP
  8
100
 10
41.4020
 20
39.8780
 30
0.0000
 40
1.0000
  1
GND
  0
TEXT
  7
ISOCP
  8
100
 10
45.4660
 20
18.1610
 30
0.0000
 40
1.7780
  1
LED1
 72
2
 73
3
 11
45.4660
 21
18.1610
 31
0.0000
  0
TEXT
  7
ISOCP
  8
100
 10
39.2430
 20
26.0350
 30
0.0000
 40
1.0000
  1
GND
  0
TEXT
  7
ISOCP
  8
100
 10
38.9890
 20
23.3680
 30
0.0000
 40
1.0000
  1
DATA
  0
TEXT
  7
ISOCP
  8
100
 10
38.9890
 20
20.8280
 30
0.0000
 40
1.0000
  1
+5V
  0
TEXT
  7
ISOCP
  8
100
 10
55.3720
 20
22.3520
 30
0.0000
 40
1.7780
  1
WS2812b
  0
TEXT
  7
ISOCP
  8
100
 10
41.2750
 20
37.5920
 30
0.0000
 40
1.0000
  1
+5V
  0
TEXT
  7
ISOCP
  8
100
 10
41.6560
 20
34.7980
 30
0.0000
 40
1.0000
  1
SCL
  0
TEXT
  7
ISOCP
  8
100
 10
41.5290
 20
32.3850
 30
0.0000
 40
1.0000
  1
SDA
  0
TEXT
  7
ISOCP
  8
100
 10
56.1340
 20
34.7980
 30
0.0000
 40
1.7780
  1
Display
  0
CIRCLE
  8
100
 10
2.2500
 20
2.2500
 30
0.0000
 40
1.5000
  0
CIRCLE
  8
100
 10
35.7500
 20
2.2500
 30
0.0000
 40
1.5000
  0
CIRCLE
  8
100
 10
24.2500
 20
37.2500
 30
0.0000
 40
1.5000
  0
CIRCLE
  8
100
 10
2.9380
 20
10.8890
 30
0.0000
 40
0.7071
  0
CIRCLE
  8
100
 10
2.9380
 20
8.3490
 30
0.0000
 40
0.7071
  0
CIRCLE
  8
100
 10
2.9380
 20
14.9530
 30
0.0000
 40
0.7071
  0
CIRCLE
  8
100
 10
2.9380
 20
17.4930
 30
0.0000
 40
0.7071
  0
CIRCLE
  8
100
 10
2.9380
 20
20.0330
 30
0.0000
 40
0.7071
  0
CIRCLE
  8
100
 10
2.8110
 20
36.6700
 30
0.0000
 40
0.7071
  0
CIRCLE
  8
100
 10
2.8110
 20
39.2100
 30
0.0000
 40
0.7071
  0
CIRCLE
  8
100
 10
34.8150
 20
39.5910
 30
0.0000
 40
0.7071
  0
CIRCLE
  8
100
 10
34.8150
 20
37.0510
 30
0.0000
 40
0.7071
  0
CIRCLE
  8
100
 10
34.8150
 20
34.5110
 30
0.0000
 40
0.7071
  0
CIRCLE
  8
100
 10
34.8150
 20
31.9710
 30
0.0000
 40
0.7071
  0
CIRCLE
  8
100
 10
34.8150
 20
25.6210
 30
0.0000
 40
0.7071
  0
CIRCLE
  8
100
 10
34.8150
 20
23.0810
 30
0.0000
 40
0.7071
  0
CIRCLE
  8
100
 10
34.8150
 20
20.5410
 30
0.0000
 40
0.7071
  0
CIRCLE
  8
100
 10
-13.3350
 20
17.5260
 30
0.0000
 40
2.4396
  0
CIRCLE
  8
100
 10
-7.6030
 20
20.0330
 30
0.0000
 40
0.7071
  0
CIRCLE
  8
100
 10
-7.6030
 20
17.6200
 30
0.0000
 40
0.7071
  0
CIRCLE
  8
100
 10
-7.6030
 20
15.0800
 30
0.0000
 40
0.7071
  0
CIRCLE
  8
100
 10
-7.2390
 20
7.8740
 30
0.0000
 40
0.2840
  0
CIRCLE
  8
100
 10
-7.3660
 20
36.1950
 30
0.0000
 40
0.2840
  0
CIRCLE
  8
100
 10
50.0550
 20
39.5910
 30
0.0000
 40
0.7071
  0
CIRCLE
  8
100
 10
50.0550
 20
37.0510
 30
0.0000
 40
0.7071
  0
CIRCLE
  8
100
 10
50.0550
 20
34.5110
 30
0.0000
 40
0.7071
  0
CIRCLE
  8
100
 10
50.0550
 20
31.9710
 30
0.0000
 40
0.7071
  0
CIRCLE
  8
100
 10
51.4350
 20
23.1140
 30
0.0000
 40
2.4396
  0
CIRCLE
  8
100
 10
45.7030
 20
25.6210
 30
0.0000
 40
0.7071
  0
CIRCLE
  8
100
 10
45.7030
 20
23.2080
 30
0.0000
 40
0.7071
  0
CIRCLE
  8
100
 10
45.7030
 20
20.6680
 30
0.0000
 40
0.7071
  0
ENDSEC
  0
EOF
